<svg id="Layer_1" data-name="Layer 1" xmlns="http://www.w3.org/2000/svg" viewBox="0 0 594 974"><defs><style>.cls-1{fill:#fefefe;}.cls-2{fill:#3c9bd6;}.cls-3{fill:#fed323;}.cls-4{fill:#d4b07f;}.cls-5{fill:#647a7d;}.cls-6{fill:#01040b;}.cls-7{fill:#fcfcfc;}.cls-8{fill:#fcfdfd;}.cls-9{fill:#fdfdfd;}.cls-10{fill:#02050c;}.cls-11{fill:#03060c;}</style></defs><title>homero</title><path class="cls-1" d="M196.4,354.88c5.28,5,8.22,11.14,12.72,16,2.63,2.83,5.15,5.79,8,8.38,4.16,3.76,6.69,3.74,10.73-.07,8-7.6,16.11-15.2,23.89-23.07,7.43-7.52,7.89-7.57,13.76,1.26,7,10.55,15.75,19.79,23.45,29.83,3,3.92,5.28,3.85,9.66-.26,8.76-8.2,17.64-16.25,26.87-23.91q8-6.65,15.71-13.62c1.44-1.3,4-3.23,2.26-5-1.56-1.6-4.3-.32-5.95,1.54-3.3,3.7-7.21,6.71-11,9.9-1.07.91-2,2.24-3.93,1.87-.32-4.81,1.33-9.39,1.81-14.1a1.39,1.39,0,0,1,1.32-1.27c3.73-.44,7.09-2.19,10.69-3.08,2.46-.61,4.57.31,6.87,1.23,6.92,2.76,8.35,8,8.3,14.82-.06,8.9.88,17.81,1.41,26.94-2.45-.54-4.6-1.11-6.77-1.47-6.47-1-10.71-4.17-11.46-11.17-.28-2.61-1.43-6.44-4.2-5.67-2.42.67-.73,4.38-.08,6.7,3.26,11.59,4.67,23.45,5.66,35.39,1.19,14.35,1.42,28.73,1.41,43.12a7.85,7.85,0,0,0,2.15,5.42c18.48,20.7,28.23,45.65,34.9,72.06A216.67,216.67,0,0,1,380.88,574a100.24,100.24,0,0,1-.75,10.35c-.45,5.89-3.07,9.27-9.11,11.54-29.81,11.17-60.36,18.65-92.18,20.7-29.34,1.89-58.71,1.31-87.77-2.75-48.88-6.82-96-20-140.31-42.39a106.08,106.08,0,0,1-15.52-9.72,10.18,10.18,0,0,1-4.35-8.5c-.3-11.24,2.9-21.78,6.33-32.27A134,134,0,0,1,59.41,479.8c2.41-3.08,4.41-3.05,6.52-.24,10.87,14.49,24.84,25.52,39.64,35.62a3.26,3.26,0,0,1,1.52,3.36,32.14,32.14,0,0,0,2,14.09,6.36,6.36,0,0,1-1.48,7c-2.84,3.18-5.66,6.4-7.42,10.34-2.56,5.73-1.11,13.36,3.23,17.37a14.46,14.46,0,0,0,17,2c3.83-2.05,5.9-5.69,8.1-9.16s4.48-7.26,7.52-10.29c3.74-3.72,7-3.14,8.63,1.87,1.9,5.94,3.17,12.07,4.92,18.05,3.46,11.91,16.54,16.56,24.61,8.75,4.16-4,5.28-9.44,5.7-14.94a40.06,40.06,0,0,0-1.07-13.48,14.22,14.22,0,0,1-.51-3.55c0-2.38-1.21-5.27,2.06-6.58s5.32.9,7.21,2.92a31.85,31.85,0,0,1,4.52,7,82,82,0,0,0,5.24,8.92c3.31,4.67,7.51,8.17,13.75,6.83,6.63-1.42,10.65-5.77,12-12.37,2.49-11.8-.36-22.66-6.15-32.94-2.22-3.93-4.41-7.89-6.65-11.8-1-1.68-1-2.55,1.35-2.77a18.79,18.79,0,0,0,5.35-1.53c5.06-2.15,8.85-5.55,9.35-11.38a14.79,14.79,0,0,0-7.48-14.79A37.77,37.77,0,0,0,205,473.42c-17.63-2.76-31.05-12.49-42.82-25.13-10.4-11.18-18.72-23.82-26.28-37-2-3.52-1.06-6.47,2.74-9.69,2.83-2.39,4.56.18,6.59,1.37.68.4,1.27,1,1.94,1.41,9.69,6.52,14.82,5.84,22.3-3.07A155.27,155.27,0,0,0,196.4,354.88Z"/><path class="cls-2" d="M354.59,607.44c-2,6.35-6.41,10.34-10.2,14.75-18.28,21.25-40.6,37.11-65.88,48.87a172.87,172.87,0,0,1-55.82,15.12c-2.11.21-4.21.42-2.47,3.14,5.52,8.62,6.16,18.55,7.78,28.19,5.73,34,.19,66.94-9.15,99.54,0,.12-.18.23-.18.35-.5,12.49-9.8,14-19.19,15.37a333.79,333.79,0,0,1-67.29,3.12c-19.27-1.08-38.33-3.71-56.44-11.09-3-1.24-4.27-2.23-3-5.91,6.76-18.94,13.75-37.82,19.46-57.12,3-10.09,5.37-20.27,5.25-30.92a39.18,39.18,0,0,0-3.62-16.18c-8-17.34-16.21-34.56-23.91-52C58.58,636.83,51.18,610,50.9,581.5c0-3.88,1.19-3.82,4-2.45A431.26,431.26,0,0,0,153,612.21a498.47,498.47,0,0,0,77,10,363.31,363.31,0,0,0,58.27-1.08A345.84,345.84,0,0,0,351.81,608C352.54,607.81,353.31,607.71,354.59,607.44Z"/><path class="cls-3" d="M376.21,174.84c-2.94-.25-5.32,1-7.6,2.13-8,4.08-14.89,2.29-21.07-3.69-5.56-5.39-11.36-10.44-18.82-13.1-.62-.22-1.23-.49-1.85-.71-2.22-.8-5.21-2.18-6.28.34-.65,1.54,2.61,2.77,4.59,3.42,7.6,2.47,13,8.08,18.82,13.1,3.44,3,7,5.69,11.52,6.93,1.64.45,2.6,1.24,2.44,3.31-.3,4-.06,8-.37,12-.22,2.73-1.2,3.94-4.27,1.91-18.9-12.49-39.14-21.81-61.82-25-1.84-.26-3.7-.39-5.56-.57-3.36-.33-3.75-1.24-1.91-4.11,1.13-1.77,3.17-2.42,4.49-3.91,1-1.09,2.87-2.22,1.58-3.89s-3.09-.49-4.36.34c-6,3.91-8.64,9.95-9.56,16.7-.72,5.27-.84,10.64,2.9,15.41a4.64,4.64,0,0,0,1.78-4.55c-.1-1.32-.34-2.63-.51-3.94-.74-5.83.07-6.71,5.93-6.84,8.66-.2,16.86,1.95,24.83,5,13,5,25.66,10.73,37.36,18.45,2.27,1.5,2.59,2.89,1.67,5.24-1.53,3.92-4.75,6.31-7.59,9.09-.81.79-2.76,1.74-1.7,3.09,1.17,1.5,3.09.79,4.19-.48,3.27-3.76,6.49-2.6,10.22-.64,7.17,3.76,14.64,6.93,21.79,10.71,4.5,2.38,8.6,5.54,8.89,11.35.41,8.06-7.31,15.4-16.33,15.69-9.34.3-17.39-3.37-24.94-8.29-8.79-5.73-17.27-12-28-13.65-24.52-3.76-45.72,1.81-61.27,22.36-7.37,9.74-9.67,21-8.42,33.12,1.35,13,5.47,24.86,14.53,34.58,8.88,9.54,20.25,14.33,32.8,16.71,7.26,1.37,14.58,1.32,21.91.94,2.21-.12,3.52-.12,3.05,2.83a93.67,93.67,0,0,0-.67,10.35,15,15,0,0,1-6.62,12.16c-5.92,4.17-11,9.29-16,14.45-1.78,1.84-2.92,2.6-4.94-.17-8.45-11.59-16.93-23.19-25.93-34.36-10.75-13.35-22.4-26-32.74-39.67a383.49,383.49,0,0,1-22.09-32.73,4.72,4.72,0,0,1-.26-4.81c6.81-15.53,14.07-30.86,20.16-46.7.82-2.12,1.89-3.22,4.29-3.12a13.56,13.56,0,0,0,7.67-1.76c1-.6,2.32-1.23,1.63-2.73a2.41,2.41,0,0,0-3.14-1.08c-2.27.75-4.41,1.7-6.91,1.66a15.12,15.12,0,0,1-14.3-11.18c-2.06-7.29.47-15,6.19-18.81a15.58,15.58,0,0,1,18.58.6,13.91,13.91,0,0,1,4,6.33c.47,1.28,1.14,3.37,2.79,2.78s1.35-2.75.94-4.29a16.27,16.27,0,0,0-9.09-11c-3.79-1.74-4.3-4.12-2.86-7.66.93-2.28,1.46-4.72,2.33-7.64,1.55,2.15,1.38,4.16,1.71,6,.24,1.34.26,2.76,1.86,3.19s2.86-.5,3.67-1.81c2.29-3.73,4.41-7.57,6.76-11.26,3.4-5.36,5.39-11.6,10-16.17.9-.88,1.56-2.21,3.26-2.26,1.07,13.81-3.92,26.91-4.89,41.13,5.05-3,5.75-7.53,6.49-11.81,1.52-8.77,3.22-17.52,3.94-26.4a23,23,0,0,0-.37-7.93c-.94-3.45-2.84-4.39-5.87-2.53-4.57,2.81-7.35,7.27-10,11.72-3.27,5.44-6.38,11-10,17.24-2-6-2.82-11.41-2-16.62,3.31-21.06,6.41-42.23,15.68-61.78,6.82-14.38,16-26.33,32.63-30.56.21,6.22-2.87,12.43-.5,18.77,2.63-1.52,2.17-4.23,2.81-6.45A50.88,50.88,0,0,0,298.73,63c1-6.65,4.18-10.49,11.53-10.87,6.49-.34,12.9-1.39,19.46-.67,2.55.28,2.75,1,2.15,3.18-1.2,4.32-3.51,8.31-3.78,12.91a7.92,7.92,0,0,0,.27,4.13c3.25-2.82,4.25-6.77,5.78-10.3,4.8-11,3.26-9.65,14.1-8C365.39,56,381,62.52,394.06,74.09c14.51,12.84,20.7,29.58,21.4,48.58.55,15-2,29.67-5.24,44.24-.84,3.78-1.2,6.76,3.28,9.23,5.72,3.15,5.94,16.27.91,20.44-1.67,1.39-2.23-.5-3.12-1.29s-1.67-1.8-2.68-1.26S408,196,408.26,197a37.89,37.89,0,0,0,1.66,4.88,15,15,0,0,1,1.31,7c-.36,6-1.39,6.58-6.77,4.06C392,207,379.1,202.78,365.34,201.48c-1.81-.17-2.94-.54-2.78-2.81a33.81,33.81,0,0,0-1.33-12.22c-.89-3,1.81-2.27,3.24-2.55C369.88,182.84,374.71,181.14,376.21,174.84Z"/><path class="cls-3" d="M34.75,403.13c0-19.22,7.37-35.71,18.93-50.54C64.25,339,75.84,326.4,89.66,316c2.46-1.86,4.08-1.83,6.58-.19,22.36,14.65,38.44,34.89,51.66,57.69,1.66,2.86,4.5,5.84,4.39,8.67s-4.35,4.19-6.7,6.29a91,91,0,0,0-12.22,13.66c-2.66,3.58-3.48,7.54-1.4,11.62,13.68,26.83,32.36,48.8,60.14,62,5.51,2.62,11.41,3.38,17.24,4.57.65.14,1.33.16,2,.31,6.43,1.49,9.92,5.37,9.46,10.49-.47,5.29-5.62,10.12-11.32,10.6a5.69,5.69,0,0,1-4.92-2.12c-1-1.09-2.16-3.13-3.82-1.87-2,1.52-.93,3.83.29,5.35a99.42,99.42,0,0,1,9.45,14.71c5,9.06,8.57,18.52,8,29.15a22.71,22.71,0,0,1-1.95,8.09c-2.7,6.1-9.91,6.8-14.8,1.56-2.75-3-4.19-6.76-6.19-10.18a48.9,48.9,0,0,0-7.79-10.05c-2.62-2.6-5.6-4.12-9.34-2.46s-5.6,4.67-5.68,8.82c-.1,5,1.34,9.73,2,14.59a21.88,21.88,0,0,1-2.11,13.55c-1.7,3.15-4.16,5.77-8.11,5.57a9.49,9.49,0,0,1-8.5-5.64c-2.58-5.31-3.26-11.15-4.89-16.73a48.38,48.38,0,0,0-2.1-6.4c-2.75-6.09-7-7.18-12.48-3.41-5.26,3.63-8.93,8.67-12.46,13.86-1.87,2.75-3.67,5.66-7,6.8-7,2.38-13-3-12-10.72A19,19,0,0,1,110.79,543c4.19-4.19,5-8.6,2.43-14-2.2-4.68-1-9.64-.29-14.5.33-2.23.55-4.48.73-6.73.07-.74.31-1.78-.55-2.14a2,2,0,0,0-2.42.91c-2.42,6.07-5,2.57-8,.44A188.18,188.18,0,0,1,53.53,455.2C45,441.82,37.71,427.88,35.38,411.9,35,409,35,406.06,34.75,403.13Z"/><path class="cls-2" d="M305.54,822.83a228.32,228.32,0,0,1-48.32-5.25c-3.68-.84-4.88-2-3.94-6.07a258.1,258.1,0,0,0,6.41-64.08c-.37-14.9-2.09-29.64-6.25-44-1.26-4.37-3.28-8.41-4.95-12.6-1-2.44-.8-3.71,2.11-4.54,28.41-8.16,54.32-21.17,76.92-40.4a141.66,141.66,0,0,0,17.71-17.27c1.72-2.08,2.62-1.88,4,.31a233.58,233.58,0,0,1,25.43,56.82,240,240,0,0,1,9.41,49.58,279.72,279.72,0,0,1-.12,47.38c-.82,9.26-2,18.49-3.62,27.65-.39,2.19-1.23,3-3.35,3.58a269.12,269.12,0,0,1-50.69,8C319.38,822.3,312.46,822.51,305.54,822.83Z"/><path class="cls-3" d="M403.35,518a123.36,123.36,0,0,1-21.87-1.57c-3.34-.5-5-1.7-6-5-5.05-16.56-11.61-32.45-22-46.48-2.21-3-4.4-6.17-7.23-8.47a12.79,12.79,0,0,1-5-12.59c1.26-9.29.54-18.61.51-27.91a3.83,3.83,0,0,1,2.3-4A253.44,253.44,0,0,1,385.5,393.9c3.31-1.09,4.67,0,5.68,2.75,4.24,11.54,12.44,20.62,19.17,30.61,2,3,5.32,3.15,8.55,3,15-.9,29.83-3.05,44.73-4.74,5.94-.68,11.88-1.48,17.84-1.84,9-.55,16.49-4.54,23.52-9.76,9.63-7.14,19.56-13.77,31.26-17.15,2.29-.66,4.62-1.4,7-1,3.5.62,6.35,2.5,7.37,6s-.08,6.72-3.09,9.22c-3.31,2.74-7.18,4.52-10.86,6.62-3,1.72-6.09,3.34-7.89,6.49-2.32,4.05-.92,7.55,3.46,9,4.18,1.42,8.47.52,12.7.71,6.51.28,13,.54,19.3,2.48a10.93,10.93,0,0,1,5.06,3,8,8,0,0,1-2.54,12.94c-5.06,2.37-10.64,2.14-16,3-11.14,1.72-13.21,6.36-6.53,15.52,3,4.18,6.49,8.08,9.71,12.14a21.24,21.24,0,0,1,1.92,3c1.53,2.79,1.66,5.56-.34,8.21s-4.78,3.24-7.83,2.76a14.36,14.36,0,0,1-7.08-3.47c-2.42-2.09-4.76-4.28-7-6.57-2.68-2.75-5-3-8.18-.37-9.46,7.66-20.57,10.91-32.61,10.62a31.84,31.84,0,0,0-18,4.44c-10.28,6.07-21.91,9.37-33.55,12.13C428.83,516.55,416.22,518.43,403.35,518Z"/><path class="cls-4" d="M380.25,284.7a34.84,34.84,0,0,1-.77,8.34c-.41,2.41-.64,4.85-4,4.88a1.65,1.65,0,0,0-1.71,1.84c.11,1.07.95,1.54,1.88,1.83,2.52.77,5.17,1.1,7.54,2.44,4,2.25,6.86,5.28,6.62,10.09s-3.55,7.54-7.87,9A30.5,30.5,0,0,1,371,325a5.25,5.25,0,0,0-5.23,2.82,31.5,31.5,0,0,1-5.48,7.31,12.44,12.44,0,0,1-16.7.73,38.8,38.8,0,0,1-3.62-3.14c-1.8-1.84-2.92-1.91-2.88,1,0,1.78-1.39,1.86-2.41,2.08-19.26,4.27-38.33,4.86-56.42-4.54-16-8.31-24.76-21.72-26.23-39.68-1.19-14.49,1.59-27.77,13.08-37.95,8.42-7.47,18.45-11.46,29.48-12.8,13.17-1.6,26-.18,38.15,5.52a25.48,25.48,0,0,1,5.76,3.54c9.81,8.28,21,12.82,33.95,12.59,2.4-.05,3.29.84,4.05,2.79A54.21,54.21,0,0,1,380.25,284.7Z"/><path class="cls-5" d="M345.58,929.68c-11.37-.5-27.26-1.5-42.49-7.09-8-3-13.71-9-19.92-14.43-1.31-1.13-2.54-2.36-3.83-3.51-3.14-2.79-4.26-2.55-5.84,1.44-1.24,3.14-1.37,6.47-1.49,9.81-.3,8.84-.36,8.93-9,7.35-6.53-1.2-13.06-2.45-19.49-4.07-6.16-1.54-9-5.09-8.17-11.4,2-16.42,5.49-32.5,13.45-47.27,1.1-2,2.37-2.47,4.54-1.87,22.93,6.4,46.38,7.93,70,6.81,12.34-.59,24.68-1.91,36.54-5.8a6.16,6.16,0,0,1,6,1.23c19.42,14.37,33.73,32.29,39.05,56.44.7,3.15-.09,5.13-3.45,6.29A92.84,92.84,0,0,1,380.08,928,295.93,295.93,0,0,1,345.58,929.68Z"/><path class="cls-5" d="M201.3,945c-23.74-.86-47.19-3.4-69.82-11.28-9.1-3.17-16-9.38-22.8-15.75-1.37-1.28-2.74-3.87-4.66-3-2.29,1-2.45,3.95-2.54,6.36-.14,3.86-.17,7.73-.13,11.59,0,2.24-.48,3.23-3,2.35-10.06-3.49-20.06-7.11-29.58-12a4.73,4.73,0,0,1-3-4.25c-.76-16,.91-31.58,6.16-46.75.82-2.36,1.9-2.54,4.08-1.79,21.36,7.34,43.46,10.1,65.92,10.43,14,.2,28,.23,41.77-2.57,1.43-.29,3-.28,4.26-1,4.71-2.67,8.47-.63,12,2.23a137.26,137.26,0,0,1,32.77,37.86,63.85,63.85,0,0,1,6.4,17.16c.84,3.46-.12,5.3-3.8,6.2A134,134,0,0,1,201.3,945Z"/><path class="cls-1" d="M164.69,398c-14.43-37.12-36.48-67.93-70.29-89.55a93.42,93.42,0,0,0-9.86-5.19c-3.69-1.79-3.82-1.94-.27-4.37,6.08-4.16,13-6.54,19.94-8.76,18-5.76,36.35-8,54.92-2.84,10.59,2.95,19.78,8.4,26.86,17,8.49,10.35,9.86,22.63,8.13,35.13-3,21.54-12.72,40.09-27,56.37a23.12,23.12,0,0,1-2,2A1,1,0,0,1,164.69,398Z"/><path class="cls-2" d="M213.4,834.33a220,220,0,0,1-9.78,29.21c-1.75,4.38-5.71,5.68-9.62,6.87-18,5.5-36.54,6.38-55.2,5.73-23.27-.8-46-4.45-67.8-12.95-3.72-1.45-8.13-2.6-10.34-5.69-2.43-3.4,1.5-6.93,2.48-10.41a109.06,109.06,0,0,1,6-16.81c.94-2,1.58-2.56,3.79-1.62,18.7,8,38.48,10.73,58.58,12.18a310.55,310.55,0,0,0,53.43-.88c9-.91,17.72-3.1,26.45-5.3C212,834.51,212.58,834.46,213.4,834.33Z"/><path class="cls-6" d="M576.66,440.85c-1.42-5.22-5.16-7.8-9.88-9.45-7.53-2.63-15.47-2.42-23.31-2.6-2.05-.05-4.1.11-6.15.23a3.22,3.22,0,0,1-3-1.16c-.63-1.11.65-1.87,1.32-2.62a19,19,0,0,1,4.48-3.85c3.45-2,7.08-3.83,10.4-6.08,5.55-3.78,8-9.74,6.46-15.09-1.62-5.55-7.52-9.57-14.06-9.86-4.85-.22-9.14,1.43-13.34,3.46-12.78,6.2-26,11.63-36.69,21.45a10.94,10.94,0,0,1-6.2,2.51c-20.62,2.55-41.28,4.69-61.93,6.94-10,1.08-14.62-2.55-18.33-10.61-3.17-6.9-3.47-6.77,2.59-11.57a15,15,0,0,0,3.77-19.15c-8.33-14.65-17.88-28.44-31.34-39-3.56-2.8-7.3-5.35-10.87-8.13-1-.8-2.78-1.29-1.26-4.18a7.87,7.87,0,0,1,7.18-4.06c1,0,2.06.08,3.1.05,8.26-.26,14.25-4.2,15.81-10.36,1.84-7.27-.65-12.26-8.53-16.76-1.71-1-2.42-1.91-2-4.08a55.58,55.58,0,0,0-3.27-32.1c-1-2.29-.44-3.89,1.48-5.13,5.73-3.67,8.31-9.19,9.05-15.66a5.54,5.54,0,0,1,3.2-4.59c6.51-3.73,11.94-8.47,13.9-16.16a2.58,2.58,0,0,1,.79-1.34c6.1-4.9,6.66-11.51,5.45-18.46-.4-2.23.51-3.4,1.75-4.76,8.58-9.46,8.5-17.29-.3-26.34-2.2-2.26-3.22-4.6-2.41-7.9,3.16-12.92,5.77-25.93,6-39.33.3-17.65-5.13-35.29-16.46-49.07a103,103,0,0,0-7-8s-26-27-90-22c-7,3-6.58,4.43-12.42,4.27a22,22,0,0,1-3.11,1.37,47.33,47.33,0,0,0-18.21,11.8C258,78.87,251.39,98.25,247.32,118.86c-1.15,5.84-2,11.78-4.51,17.63-.72-.88-1.17-1.37-1.54-1.91-1.61-2.4-2.86-5.57-6.51-4.88s-4.46,3.85-5.45,6.78c-1.46,4.31-1.82,8.84-2.46,13.3-1.21,8.41-3.64,16.65-3.64,25.23,0,1.23-.06,3,1,3.22,1.55.33,1.7-1.54,2.27-2.63a8.91,8.91,0,0,0,.6-1.83c1.39-6.82,2.6-13.67,4.19-20.44,1.26-5.34,1.28-11.06,4.47-16.33,4.6,5.11,4.92,10.75,4.51,16.55-.54,7.88-3.23,15.32-4.83,23-.4,1.93-1,2.48-2.95,2.72-9.37,1.14-15.1,6.56-17.51,15.61-2.51,9.45.38,17.63,8.19,23.62,1.5,1.14,4.39,1.86,3,4.78-4.85,9.9-8.54,20.31-13.64,30.11-1.45,2.79-2.63,2.75-5.1,1.22-5.49-3.4-9.94-2.61-14.2,2.16-6.56,7.36-13.39,14.52-19.48,22.27-3.66,4.65-6.59,5.86-12.62,3.7-13.7-4.9-28-4.18-42.26-1.82-17.12,2.85-32.92,8.7-46,20.55A13.93,13.93,0,0,0,69,316.36a17.71,17.71,0,0,0,1.89,4.36c1.78,2.52.78,4.24-1,6.16-5.4,5.72-10.66,11.57-16,17.34-23.46,25.26-29.32,54.36-18.64,86.87,4.65,14.16,13,26.38,21.67,38.36,1.7,2.36,1.66,3.66-.16,6-15.6,19.91-26.2,42.24-30,67.28-2.25,14.61.86,20.23,12.23,26.71.46.26.87.61,1.35.84,4.74,2.3,6.37,5.88,6.2,11.27-.59,18.92,2.69,37.35,8.54,55.3,7.82,24,18.49,46.85,30.26,69.16,7,13.36,8.49,27.35,5.15,41.81-4.4,19-10.9,37.45-17.44,55.82-5.74,16.13-11.69,32.17-17.43,48.29-2.59,7.27-1.59,9.15,5.67,12.22,1.46.62,2.9,1.31,4.33,2,1.86.92,2.86,2,1.83,4.38A52.79,52.79,0,0,0,65,878.92c-3.16,13.21-6.2,26.44-4.52,40.21.47,3.86,2.1,7.11,5.6,8.66,10.53,4.68,20.79,10.12,32.41,11.88,5.38.81,5.69.7,6.29-4.64.47-4.14.76-8.31,1.2-13.27,10.41,11.34,22.91,17.17,36.58,20.88,20.08,5.45,40.6,7.1,61.3,7.25a120.72,120.72,0,0,0,33.57-4.22c6.54-1.83,8.23-5,6.77-11.68-.7-3.19-1.52-6.37-2.4-10,7.37,1.24,14.38,2.68,21.46,3.55,11.75,1.45,11.31,1.81,12.81-10.25.29-2.32-.17-5.64,1.74-6.47s3.79,2,5.29,3.57c7.94,8.39,17.61,13.49,28.77,16.23,20.18,4.94,40.59,5.76,61.15,3.71,11-1.09,21.77-3.36,32-7.82,4.95-2.17,5.6-3.37,5-8.93-.14-1.3-.48-3.43-.77-4.71-3.39-15-10.93-27.85-21.25-39.18a190.91,190.91,0,0,0-18.17-17c3.54-2.15,5.27-5.27,6.36-8.71A298.45,298.45,0,0,0,389.79,770a264.1,264.1,0,0,0-3.19-55c-3.74-22.35-9.94-44-19.72-64.49C363,642.36,358,634.8,353,627.31c-2.31-3.41-2.62-6.41.56-9.52,2.89-2.83,4.58-6.51,6.17-10.18a7.71,7.71,0,0,1,4.64-4.45,94.44,94.44,0,0,0,15.38-7.46,7,7,0,0,0,3.46-4.56,89.09,89.09,0,0,0,2.19-29.34c-1.13-12.22-3.49-24.22-5.77-36.23-.58-3-.07-4.08,3.09-3.75a172.82,172.82,0,0,0,36,.48c21-2.19,41.31-6.78,59.62-17.75a16.93,16.93,0,0,1,10.29-2.47c14,1.12,26.54-2.84,37.92-10.72,2.27-1.57,3.52-1.33,5.3.49,2.87,2.95,5.69,6,9.3,8.12,6.51,3.85,14.16,3.14,18.68-1.79,4.37-4.76,4.26-11.58-.37-17.87-3.47-4.72-7.11-9.32-10.54-14.07-2.88-4-2.82-4.16,2-5.22,5.45-1.2,11-2,16.4-3.35C575.57,455.56,578.94,449.16,576.66,440.85ZM242.17,854.76c2.55,1,2.78,2.4,1.7,4.82-5,11.29-9.48,22.78-11.47,35.09-.49,3,0,6.13-1.23,9a3.7,3.7,0,0,1-2.48-2c-6.32-10.53-16-17.74-25.17-25.44-1-.82-2.9-1.21-1.34-3.29,8.51-11.38,12.79-24.68,16.68-38.07,5.63-19.35,11.58-38.68,14.31-58.72,3.81-27.83,3.8-55.51-5.55-82.5-.68-2-.79-2.71,1.7-2.87a44.21,44.21,0,0,0,7.78-1.65c5.66-1.4,6.89-1,8.4,4.57a307,307,0,0,1,7.4,33.45c5.43,34.6-.56,68.14-9.14,101.46-1.52,5.91-2.74,11.9-4.89,17.65C237.48,850.06,238,853.2,242.17,854.76Z"/><path class="cls-2" d="M308.46,860.92c-21.34-.7-41.82-2.24-61.48-9.51-3.53-1.31-4-2.71-3-6,2.3-7,4.41-14.17,6.26-21.34.6-2.33,1.48-2.67,3.57-2.29,9.14,1.65,18.26,3.41,27.45,4.73,15.5,2.22,31.07,1.34,46.6.26,13-.9,26-2.26,38.69-5.22,2.84-.66,5.65-1.51,8.46-2.3,2.11-.6,3.4-.24,3.1,2.35C377,831.82,373.39,841.39,370,851c-.45,1.28-1.69,1.49-2.87,1.84-15.34,4.57-31.07,6.73-47,7.5Z"/><path class="cls-1" d="M198.5,344.63a58.12,58.12,0,0,0,.91-19.5c-1.72-16-9.34-28.08-23.08-36.18-3-1.79-2.8-2.88-.9-5.19,5.93-7.21,12.68-13.67,18.82-20.69,2-2.35,2.9-1.16,3.86.75a253.4,253.4,0,0,0,16.37,28.7,399,399,0,0,0,37.13,47.42c5,5.37,4.78,6.15-.61,11.07q-13.14,12-25.84,24.46c-2.44,2.41-3.63,2.95-6.2,0a303,303,0,0,1-18.69-24.88A9.56,9.56,0,0,1,198.5,344.63Z"/><path class="cls-1" d="M339.42,383.28c3.35,1,6.5,1.89,9.68,2.74,6,1.6,7.89.34,8.55-6,.77-7.21-.69-14.36-1-21.55-.18-4.12-.46-8.25-.74-12.37a3.38,3.38,0,0,1,1.32-3.1c4.74-4,8.45-4.41,13.43-1,9.22,6.33,16.83,14.33,23.58,23.16,4,5.17,8.21,10.17,11.41,15.88,2.24,4,1.9,4.28-2.63,4.77-15.65,1.71-30.17,7-44.21,13.89-5,2.45-10,4.81-15.08,7.2-1,.48-2.35,1.51-2.58-.69C340.38,398.72,338.78,391.25,339.42,383.28Z"/><path class="cls-3" d="M405,220.49c-.14,4.51-7.78,14.55-12.12,16.09a1.81,1.81,0,0,1-2.42-.74c-4.92-9.25-14.38-11.5-23-15.05-3.42-1.4-7-2.42-10-4.7C356,215,353,214.75,354,212c1-3,2.3-6,6.21-6.45s7.46.26,11.07,1a124.47,124.47,0,0,1,31.89,11.73C404.07,218.79,405.24,219.05,405,220.49Z"/><path class="cls-6" d="M401.82,51.58l-.09-.25a39,39,0,0,0-7.08-13.12,33.09,33.09,0,0,0-24.88-11.48,35.45,35.45,0,0,0-11.37,1.85,6.56,6.56,0,0,1-6.59-1c-8.32-5.83-17.41-7.38-27.22-4.14s-16.75,9.86-21.69,18.5a20.37,20.37,0,0,1-8.32,8.34c4.95.13,9.63-.68,13.44-4.14l-1,.07c4.61-13.6,26.33-25.94,41.24-14-3.83,4.21-8.18,8-11.36,12.74a2,2,0,0,1-1.12.83,287,287,0,0,1,31.46,6.12,9.06,9.06,0,0,1-.54-1.08c-2.12-4.85-4.08-9.79-6.51-14.48-1.47-2.84-.15-3.3,2.09-3.8,13.59-3,27.14,4.26,33.21,18,2.46,5.55,3,14,2.54,20.5,0,.33,1.63,2,1.91,2.28.55.64,1.59,2.13,2.46,1.25a7.22,7.22,0,0,0,.9-2.56,23.14,23.14,0,0,0,.66-2.88C404.91,63.24,403.71,57.13,401.82,51.58Zm-41.81-7a10.36,10.36,0,0,1,1.82,5.68l-18.66-3.78c.42-.86.66-1.31.87-1.78,1.89-4.12,5.32-7.67,9.33-7.82C356.57,36.76,358.24,41.56,360,44.59Z"/><path class="cls-7" d="M158.62,397.57c.09,5.54-.9,6.4-4.78,4.85-3.39-1.36-8.19-2.38-8.76-6s4.31-4.75,6.85-6.93,4-1.75,4.88,1.55C157.49,393.6,158.65,396,158.62,397.57Z"/><path class="cls-8" d="M77.87,307.07a11.71,11.71,0,0,1,1.19.06c3.19.45,7.26,1.11,8.32,3.74.94,2.35-3.08,4-5.13,5.66-6.13,5-7.36,4.44-9.21-3.38C72.1,309.16,73.75,307.08,77.87,307.07Z"/><path class="cls-9" d="M403.14,390.47c1.92.13,4.83-.55,5.87,1.68.95,2.05-.73,4.31-2.18,6.06-5.42,6.55-5.42,7.73-10-.73C393.63,391.58,394.55,390.6,403.14,390.47Z"/><path class="cls-7" d="M204,257.44c2,.39,4.15,1,4.85,2.91.82,2.21-.73,4.33-1.7,6.32-.73,1.5-1.48.45-2-.25a20.16,20.16,0,0,1-3.34-6.7C201.12,257.74,201.91,256.93,204,257.44Z"/><path class="cls-10" d="M239.82,209c-2.28,3.23-5.15,2-7.31.41-5.11-3.78-3.11-8.86-1.57-14a18.54,18.54,0,0,0-2.65,1.47c-.91.73-1.94,2.31-2.91,1.44-1.26-1.12.08-2.76.73-3.88,1.92-3.25,7.15-4.26,12.35-2.65,4.3,1.34,7.15,4.73,7,8.53,0,1,0,2.45-1.17,2.63s-2-1.06-2.58-2.15c-.72-1.46-.44-3.66-2.63-4-3.08-.54-4.64,1.38-5.68,3.91s-.79,4.66,1.9,6C236.82,207.44,238.79,207.26,239.82,209Z"/><path class="cls-11" d="M388.05,191.9c-1-.37-2.84.86-3.12-1.26-.24-1.81,1.09-2.41,2.59-3a26,26,0,0,1,8.15-1.44c3.84-.13,7.67-.47,11.5-.74,1-.07,2.1.14,2.39,1s-.78,1.54-1.53,2a5,5,0,0,1-1.83.76C400.18,190.2,394.16,191,388.05,191.9Z"/><path class="cls-6" d="M500.68,437.4c9.59,0,19.17-1.34,28.58.58,8.34,1.71,11.86,12.6,7.09,20.93a13.51,13.51,0,0,1-13.67,7.1c-5.36-.45-9.27.88-13.12,5s-9,7.66-15.62,5.35c-1-.35-2.36-.53-2.37-1.72s1.34-1.57,2.37-1.68c7.69-.86,13.09-5.49,17.95-10.93,1.36-1.52,2.9-1,4.43-.87,3.88.34,7.65.07,11.16-1.81a8.84,8.84,0,0,0,5.06-9.17c-.32-3.9-2.82-5.71-6.25-6.84-5.51-1.81-11.32-1.29-16.94-2.28C506.18,440.54,503.19,439.81,500.68,437.4Z"/><path class="cls-10" d="M354.11,326.64c-4-.05-6.77-4.7-4-9.06a19.91,19.91,0,0,1,13.26-8.69c1.77-.37,3.94-.08,4.29,1.85.27,1.52-1.78,2-3.16,2.41a32.73,32.73,0,0,0-3.33,1.29c-1.34.61-1.91,1.49-.5,2.63,2,1.6,2.91,3.66,1.71,5.95C361,325.72,358.32,326.63,354.11,326.64Z"/><path class="cls-1" d="M196.4,354.88c5.28,5,8.22,11.14,12.72,16,2.63,2.83,5.15,5.79,8,8.38,4.16,3.76,6.69,3.74,10.73-.07,8-7.6,16.11-15.2,23.89-23.07,7.43-7.52,7.89-7.57,13.76,1.26,7,10.55,15.75,19.79,23.45,29.83,3,3.92,5.28,3.85,9.66-.26,8.76-8.2,17.64-16.25,26.87-23.91q8-6.65,15.71-13.62c1.44-1.3,4-3.23,2.26-5-1.56-1.6-4.3-.32-5.95,1.54-3.3,3.7-7.21,6.71-11,9.9-1.07.91-2,2.24-3.93,1.87-.32-4.81,1.33-9.39,1.81-14.1a1.39,1.39,0,0,1,1.32-1.27c3.73-.44,7.09-2.19,10.69-3.08,2.46-.61,4.57.31,6.87,1.23,6.92,2.76,8.35,8,8.3,14.82-.06,8.9.88,17.81,1.41,26.94-2.45-.54-4.6-1.11-6.77-1.47-6.47-1-10.71-4.17-11.46-11.17-.28-2.61-1.43-6.44-4.2-5.67-2.42.67-.73,4.38-.08,6.7,3.26,11.59,4.67,23.45,5.66,35.39,1.19,14.35,1.42,28.73,1.41,43.12a7.85,7.85,0,0,0,2.15,5.42c18.48,20.7,28.23,45.65,34.9,72.06A216.67,216.67,0,0,1,380.88,574a100.24,100.24,0,0,1-.75,10.35c-.45,5.89-3.07,9.27-9.11,11.54-29.81,11.17-60.36,18.65-92.18,20.7-29.34,1.89-58.71,1.31-87.77-2.75-48.88-6.82-96-20-140.31-42.39a106.08,106.08,0,0,1-15.52-9.72,10.18,10.18,0,0,1-4.35-8.5c-.3-11.24,2.9-21.78,6.33-32.27A134,134,0,0,1,59.41,479.8c2.41-3.08,4.41-3.05,6.52-.24,10.87,14.49,24.84,25.52,39.64,35.62a3.26,3.26,0,0,1,1.52,3.36,32.14,32.14,0,0,0,2,14.09,6.36,6.36,0,0,1-1.48,7c-2.84,3.18-5.66,6.4-7.42,10.34-2.56,5.73-1.11,13.36,3.23,17.37a14.46,14.46,0,0,0,17,2c3.83-2.05,5.9-5.69,8.1-9.16s4.48-7.26,7.52-10.29c3.74-3.72,7-3.14,8.63,1.87,1.9,5.94,3.17,12.07,4.92,18.05,3.46,11.91,16.54,16.56,24.61,8.75,4.16-4,5.28-9.44,5.7-14.94a40.06,40.06,0,0,0-1.07-13.48,14.22,14.22,0,0,1-.51-3.55c0-2.38-1.21-5.27,2.06-6.58s5.32.9,7.21,2.92a31.85,31.85,0,0,1,4.52,7,82,82,0,0,0,5.24,8.92c3.31,4.67,7.51,8.17,13.75,6.83,6.63-1.42,10.65-5.77,12-12.37,2.49-11.8-.36-22.66-6.15-32.94-2.22-3.93-4.41-7.89-6.65-11.8-1-1.68-1-2.55,1.35-2.77a18.79,18.79,0,0,0,5.35-1.53c5.06-2.15,8.85-5.55,9.35-11.38a14.79,14.79,0,0,0-7.48-14.79A37.77,37.77,0,0,0,205,473.42c-17.63-2.76-31.05-12.49-42.82-25.13-10.4-11.18-18.72-23.82-26.28-37-2-3.52-1.06-6.47,2.74-9.69,2.83-2.39,4.56.18,6.59,1.37.68.4,1.27,1,1.94,1.41,9.69,6.52,14.82,5.84,22.3-3.07A155.27,155.27,0,0,0,196.4,354.88Z"/><path class="cls-2" d="M354.59,607.44c-2,6.35-6.41,10.34-10.2,14.75-18.28,21.25-40.6,37.11-65.88,48.87a172.87,172.87,0,0,1-55.82,15.12c-2.11.21-4.21.42-2.47,3.14,5.52,8.62,6.16,18.55,7.78,28.19,5.73,34,.19,66.94-9.15,99.54,0,.12-.18.23-.18.35-.5,12.49-9.8,14-19.19,15.37a333.79,333.79,0,0,1-67.29,3.12c-19.27-1.08-38.33-3.71-56.44-11.09-3-1.24-4.27-2.23-3-5.91,6.76-18.94,13.75-37.82,19.46-57.12,3-10.09,5.37-20.27,5.25-30.92a39.18,39.18,0,0,0-3.62-16.18c-8-17.34-16.21-34.56-23.91-52C58.58,636.83,51.18,610,50.9,581.5c0-3.88,1.19-3.82,4-2.45A431.26,431.26,0,0,0,153,612.21a498.47,498.47,0,0,0,77,10,363.31,363.31,0,0,0,58.27-1.08A345.84,345.84,0,0,0,351.81,608C352.54,607.81,353.31,607.71,354.59,607.44Z"/><path class="cls-3" d="M376.21,174.84c-2.94-.25-5.32,1-7.6,2.13-8,4.08-14.89,2.29-21.07-3.69-5.56-5.39-11.36-10.44-18.82-13.1-.62-.22-1.23-.49-1.85-.71-2.22-.8-5.21-2.18-6.28.34-.65,1.54,2.61,2.77,4.59,3.42,7.6,2.47,13,8.08,18.82,13.1,3.44,3,7,5.69,11.52,6.93,1.64.45,2.6,1.24,2.44,3.31-.3,4-.06,8-.37,12-.22,2.73-1.2,3.94-4.27,1.91-18.9-12.49-39.14-21.81-61.82-25-1.84-.26-3.7-.39-5.56-.57-3.36-.33-3.75-1.24-1.91-4.11,1.13-1.77,3.17-2.42,4.49-3.91,1-1.09,2.87-2.22,1.58-3.89s-3.09-.49-4.36.34c-6,3.91-8.64,9.95-9.56,16.7-.72,5.27-.84,10.64,2.9,15.41a4.64,4.64,0,0,0,1.78-4.55c-.1-1.32-.34-2.63-.51-3.94-.74-5.83.07-6.71,5.93-6.84,8.66-.2,16.86,1.95,24.83,5,13,5,25.66,10.73,37.36,18.45,2.27,1.5,2.59,2.89,1.67,5.24-1.53,3.92-4.75,6.31-7.59,9.09-.81.79-2.76,1.74-1.7,3.09,1.17,1.5,3.09.79,4.19-.48,3.27-3.76,6.49-2.6,10.22-.64,7.17,3.76,14.64,6.93,21.79,10.71,4.5,2.38,8.6,5.54,8.89,11.35.41,8.06-7.31,15.4-16.33,15.69-9.34.3-17.39-3.37-24.94-8.29-8.79-5.73-17.27-12-28-13.65-24.52-3.76-45.72,1.81-61.27,22.36-7.37,9.74-9.67,21-8.42,33.12,1.35,13,5.47,24.86,14.53,34.58,8.88,9.54,20.25,14.33,32.8,16.71,7.26,1.37,14.58,1.32,21.91.94,2.21-.12,3.52-.12,3.05,2.83a93.67,93.67,0,0,0-.67,10.35,15,15,0,0,1-6.62,12.16c-5.92,4.17-11,9.29-16,14.45-1.78,1.84-2.92,2.6-4.94-.17-8.45-11.59-16.93-23.19-25.93-34.36-10.75-13.35-22.4-26-32.74-39.67a383.49,383.49,0,0,1-22.09-32.73,4.72,4.72,0,0,1-.26-4.81c6.81-15.53,14.07-30.86,20.16-46.7.82-2.12,1.89-3.22,4.29-3.12a13.56,13.56,0,0,0,7.67-1.76c1-.6,2.32-1.23,1.63-2.73a2.41,2.41,0,0,0-3.14-1.08c-2.27.75-4.41,1.7-6.91,1.66a15.12,15.12,0,0,1-14.3-11.18c-2.06-7.29.47-15,6.19-18.81a15.58,15.58,0,0,1,18.58.6,13.91,13.91,0,0,1,4,6.33c.47,1.28,1.14,3.37,2.79,2.78s1.35-2.75.94-4.29a16.27,16.27,0,0,0-9.09-11c-3.79-1.74-4.3-4.12-2.86-7.66.93-2.28,1.46-4.72,2.33-7.64,1.55,2.15,1.38,4.16,1.71,6,.24,1.34.26,2.76,1.86,3.19s2.86-.5,3.67-1.81c2.29-3.73,4.41-7.57,6.76-11.26,3.4-5.36,5.39-11.6,10-16.17.9-.88,1.56-2.21,3.26-2.26,1.07,13.81-3.92,26.91-4.89,41.13,5.05-3,5.75-7.53,6.49-11.81,1.52-8.77,3.22-17.52,3.94-26.4a23,23,0,0,0-.37-7.93c-.94-3.45-2.84-4.39-5.87-2.53-4.57,2.81-7.35,7.27-10,11.72-3.27,5.44-6.38,11-10,17.24-2-6-2.82-11.41-2-16.62,3.31-21.06,6.41-42.23,15.68-61.78,6.82-14.38,16-26.33,32.63-30.56.21,6.22-2.87,12.43-.5,18.77,2.63-1.52,2.17-4.23,2.81-6.45A50.88,50.88,0,0,0,298.73,63c1-6.65,4.18-10.49,11.53-10.87,6.49-.34,12.9-1.39,19.46-.67,2.55.28,2.75,1,2.15,3.18-1.2,4.32-3.51,8.31-3.78,12.91a7.92,7.92,0,0,0,.27,4.13c3.25-2.82,4.25-6.77,5.78-10.3,4.8-11,3.26-9.65,14.1-8C365.39,56,381,62.52,394.06,74.09c14.51,12.84,20.7,29.58,21.4,48.58.55,15-2,29.67-5.24,44.24-.84,3.78-1.2,6.76,3.28,9.23,5.72,3.15,5.94,16.27.91,20.44-1.67,1.39-2.23-.5-3.12-1.29s-1.67-1.8-2.68-1.26S408,196,408.26,197a37.89,37.89,0,0,0,1.66,4.88,15,15,0,0,1,1.31,7c-.36,6-1.39,6.58-6.77,4.06C392,207,379.1,202.78,365.34,201.48c-1.81-.17-2.94-.54-2.78-2.81a33.81,33.81,0,0,0-1.33-12.22c-.89-3,1.81-2.27,3.24-2.55C369.88,182.84,374.71,181.14,376.21,174.84Z"/><path class="cls-3" d="M34.75,403.13c0-19.22,7.37-35.71,18.93-50.54C64.25,339,75.84,326.4,89.66,316c2.46-1.86,4.08-1.83,6.58-.19,22.36,14.65,38.44,34.89,51.66,57.69,1.66,2.86,4.5,5.84,4.39,8.67s-4.35,4.19-6.7,6.29a91,91,0,0,0-12.22,13.66c-2.66,3.58-3.48,7.54-1.4,11.62,13.68,26.83,32.36,48.8,60.14,62,5.51,2.62,11.41,3.38,17.24,4.57.65.14,1.33.16,2,.31,6.43,1.49,9.92,5.37,9.46,10.49-.47,5.29-5.62,10.12-11.32,10.6a5.69,5.69,0,0,1-4.92-2.12c-1-1.09-2.16-3.13-3.82-1.87-2,1.52-.93,3.83.29,5.35a99.42,99.42,0,0,1,9.45,14.71c5,9.06,8.57,18.52,8,29.15a22.71,22.71,0,0,1-1.95,8.09c-2.7,6.1-9.91,6.8-14.8,1.56-2.75-3-4.19-6.76-6.19-10.18a48.9,48.9,0,0,0-7.79-10.05c-2.62-2.6-5.6-4.12-9.34-2.46s-5.6,4.67-5.68,8.82c-.1,5,1.34,9.73,2,14.59a21.88,21.88,0,0,1-2.11,13.55c-1.7,3.15-4.16,5.77-8.11,5.57a9.49,9.49,0,0,1-8.5-5.64c-2.58-5.31-3.26-11.15-4.89-16.73a48.38,48.38,0,0,0-2.1-6.4c-2.75-6.09-7-7.18-12.48-3.41-5.26,3.63-8.93,8.67-12.46,13.86-1.87,2.75-3.67,5.66-7,6.8-7,2.38-13-3-12-10.72A19,19,0,0,1,110.79,543c4.19-4.19,5-8.6,2.43-14-2.2-4.68-1-9.64-.29-14.5.33-2.23.55-4.48.73-6.73.07-.74.31-1.78-.55-2.14a2,2,0,0,0-2.42.91c-2.42,6.07-5,2.57-8,.44A188.18,188.18,0,0,1,53.53,455.2C45,441.82,37.71,427.88,35.38,411.9,35,409,35,406.06,34.75,403.13Z"/><path class="cls-2" d="M305.54,822.83a228.32,228.32,0,0,1-48.32-5.25c-3.68-.84-4.88-2-3.94-6.07a258.1,258.1,0,0,0,6.41-64.08c-.37-14.9-2.09-29.64-6.25-44-1.26-4.37-3.28-8.41-4.95-12.6-1-2.44-.8-3.71,2.11-4.54,28.41-8.16,54.32-21.17,76.92-40.4a141.66,141.66,0,0,0,17.71-17.27c1.72-2.08,2.62-1.88,4,.31a233.58,233.58,0,0,1,25.43,56.82,240,240,0,0,1,9.41,49.58,279.72,279.72,0,0,1-.12,47.38c-.82,9.26-2,18.49-3.62,27.65-.39,2.19-1.23,3-3.35,3.58a269.12,269.12,0,0,1-50.69,8C319.38,822.3,312.46,822.51,305.54,822.83Z"/><path class="cls-3" d="M403.35,518a123.36,123.36,0,0,1-21.87-1.57c-3.34-.5-5-1.7-6-5-5.05-16.56-11.61-32.45-22-46.48-2.21-3-4.4-6.17-7.23-8.47a12.79,12.79,0,0,1-5-12.59c1.26-9.29.54-18.61.51-27.91a3.83,3.83,0,0,1,2.3-4A253.44,253.44,0,0,1,385.5,393.9c3.31-1.09,4.67,0,5.68,2.75,4.24,11.54,12.44,20.62,19.17,30.61,2,3,5.32,3.15,8.55,3,15-.9,29.83-3.05,44.73-4.74,5.94-.68,11.88-1.48,17.84-1.84,9-.55,16.49-4.54,23.52-9.76,9.63-7.14,19.56-13.77,31.26-17.15,2.29-.66,4.62-1.4,7-1,3.5.62,6.35,2.5,7.37,6s-.08,6.72-3.09,9.22c-3.31,2.74-7.18,4.52-10.86,6.62-3,1.72-6.09,3.34-7.89,6.49-2.32,4.05-.92,7.55,3.46,9,4.18,1.42,8.47.52,12.7.71,6.51.28,13,.54,19.3,2.48a10.93,10.93,0,0,1,5.06,3,8,8,0,0,1-2.54,12.94c-5.06,2.37-10.64,2.14-16,3-11.14,1.72-13.21,6.36-6.53,15.52,3,4.18,6.49,8.08,9.71,12.14a21.24,21.24,0,0,1,1.92,3c1.53,2.79,1.66,5.56-.34,8.21s-4.78,3.24-7.83,2.76a14.36,14.36,0,0,1-7.08-3.47c-2.42-2.09-4.76-4.28-7-6.57-2.68-2.75-5-3-8.18-.37-9.46,7.66-20.57,10.91-32.61,10.62a31.84,31.84,0,0,0-18,4.44c-10.28,6.07-21.91,9.37-33.55,12.13C428.83,516.55,416.22,518.43,403.35,518Z"/><path class="cls-4" d="M380.25,284.7a34.84,34.84,0,0,1-.77,8.34c-.41,2.41-.64,4.85-4,4.88a1.65,1.65,0,0,0-1.71,1.84c.11,1.07.95,1.54,1.88,1.83,2.52.77,5.17,1.1,7.54,2.44,4,2.25,6.86,5.28,6.62,10.09s-3.55,7.54-7.87,9A30.5,30.5,0,0,1,371,325a5.25,5.25,0,0,0-5.23,2.82,31.5,31.5,0,0,1-5.48,7.31,12.44,12.44,0,0,1-16.7.73,38.8,38.8,0,0,1-3.62-3.14c-1.8-1.84-2.92-1.91-2.88,1,0,1.78-1.39,1.86-2.41,2.08-19.26,4.27-38.33,4.86-56.42-4.54-16-8.31-24.76-21.72-26.23-39.68-1.19-14.49,1.59-27.77,13.08-37.95,8.42-7.47,18.45-11.46,29.48-12.8,13.17-1.6,26-.18,38.15,5.52a25.48,25.48,0,0,1,5.76,3.54c9.81,8.28,21,12.82,33.95,12.59,2.4-.05,3.29.84,4.05,2.79A54.21,54.21,0,0,1,380.25,284.7Z"/><path class="cls-5" d="M345.58,929.68c-11.37-.5-27.26-1.5-42.49-7.09-8-3-13.71-9-19.92-14.43-1.31-1.13-2.54-2.36-3.83-3.51-3.14-2.79-4.26-2.55-5.84,1.44-1.24,3.14-1.37,6.47-1.49,9.81-.3,8.84-.36,8.93-9,7.35-6.53-1.2-13.06-2.45-19.49-4.07-6.16-1.54-9-5.09-8.17-11.4,2-16.42,5.49-32.5,13.45-47.27,1.1-2,2.37-2.47,4.54-1.87,22.93,6.4,46.38,7.93,70,6.81,12.34-.59,24.68-1.91,36.54-5.8a6.16,6.16,0,0,1,6,1.23c19.42,14.37,33.73,32.29,39.05,56.44.7,3.15-.09,5.13-3.45,6.29A92.84,92.84,0,0,1,380.08,928,295.93,295.93,0,0,1,345.58,929.68Z"/><path class="cls-5" d="M201.3,945c-23.74-.86-47.19-3.4-69.82-11.28-9.1-3.17-16-9.38-22.8-15.75-1.37-1.28-2.74-3.87-4.66-3-2.29,1-2.45,3.95-2.54,6.36-.14,3.86-.17,7.73-.13,11.59,0,2.24-.48,3.23-3,2.35-10.06-3.49-20.06-7.11-29.58-12a4.73,4.73,0,0,1-3-4.25c-.76-16,.91-31.58,6.16-46.75.82-2.36,1.9-2.54,4.08-1.79,21.36,7.34,43.46,10.1,65.92,10.43,14,.2,28,.23,41.77-2.57,1.43-.29,3-.28,4.26-1,4.71-2.67,8.47-.63,12,2.23a137.26,137.26,0,0,1,32.77,37.86,63.85,63.85,0,0,1,6.4,17.16c.84,3.46-.12,5.3-3.8,6.2A134,134,0,0,1,201.3,945Z"/><path class="cls-1" d="M164.69,398c-14.43-37.12-36.48-67.93-70.29-89.55a93.42,93.42,0,0,0-9.86-5.19c-3.69-1.79-3.82-1.94-.27-4.37,6.08-4.16,13-6.54,19.94-8.76,18-5.76,36.35-8,54.92-2.84,10.59,2.95,19.78,8.4,26.86,17,8.49,10.35,9.86,22.63,8.13,35.13-3,21.54-12.72,40.09-27,56.37a23.12,23.12,0,0,1-2,2A1,1,0,0,1,164.69,398Z"/><path class="cls-2" d="M213.4,834.33a220,220,0,0,1-9.78,29.21c-1.75,4.38-5.71,5.68-9.62,6.87-18,5.5-36.54,6.38-55.2,5.73-23.27-.8-46-4.45-67.8-12.95-3.72-1.45-8.13-2.6-10.34-5.69-2.43-3.4,1.5-6.93,2.48-10.41a109.06,109.06,0,0,1,6-16.81c.94-2,1.58-2.56,3.79-1.62,18.7,8,38.48,10.73,58.58,12.18a310.55,310.55,0,0,0,53.43-.88c9-.91,17.72-3.1,26.45-5.3C212,834.51,212.58,834.46,213.4,834.33Z"/><path class="cls-2" d="M308.46,860.92c-21.34-.7-41.82-2.24-61.48-9.51-3.53-1.31-4-2.71-3-6,2.3-7,4.41-14.17,6.26-21.34.6-2.33,1.48-2.67,3.57-2.29,9.14,1.65,18.26,3.41,27.45,4.73,15.5,2.22,31.07,1.34,46.6.26,13-.9,26-2.26,38.69-5.22,2.84-.66,5.65-1.51,8.46-2.3,2.11-.6,3.4-.24,3.1,2.35C377,831.82,373.39,841.39,370,851c-.45,1.28-1.69,1.49-2.87,1.84-15.34,4.57-31.07,6.73-47,7.5Z"/><path class="cls-1" d="M198.5,344.63a58.12,58.12,0,0,0,.91-19.5c-1.72-16-9.34-28.08-23.08-36.18-3-1.79-2.8-2.88-.9-5.19,5.93-7.21,12.68-13.67,18.82-20.69,2-2.35,2.9-1.16,3.86.75a253.4,253.4,0,0,0,16.37,28.7,399,399,0,0,0,37.13,47.42c5,5.37,4.78,6.15-.61,11.07q-13.14,12-25.84,24.46c-2.44,2.41-3.63,2.95-6.2,0a303,303,0,0,1-18.69-24.88A9.56,9.56,0,0,1,198.5,344.63Z"/><path class="cls-1" d="M339.42,383.28c3.35,1,6.5,1.89,9.68,2.74,6,1.6,7.89.34,8.55-6,.77-7.21-.69-14.36-1-21.55-.18-4.12-.46-8.25-.74-12.37a3.38,3.38,0,0,1,1.32-3.1c4.74-4,8.45-4.41,13.43-1,9.22,6.33,16.83,14.33,23.58,23.16,4,5.17,8.21,10.17,11.41,15.88,2.24,4,1.9,4.28-2.63,4.77-15.65,1.71-30.17,7-44.21,13.89-5,2.45-10,4.81-15.08,7.2-1,.48-2.35,1.51-2.58-.69C340.38,398.72,338.78,391.25,339.42,383.28Z"/><path class="cls-3" d="M405,220.49c-.14,4.51-7.78,14.55-12.12,16.09a1.81,1.81,0,0,1-2.42-.74c-4.92-9.25-14.38-11.5-23-15.05-3.42-1.4-7-2.42-10-4.7C356,215,353,214.75,354,212c1-3,2.3-6,6.21-6.45s7.46.26,11.07,1a124.47,124.47,0,0,1,31.89,11.73C404.07,218.79,405.24,219.05,405,220.49Z"/><path class="cls-6" d="M401.82,51.58l-.09-.25a39,39,0,0,0-7.08-13.12,33.09,33.09,0,0,0-24.88-11.48,35.45,35.45,0,0,0-11.37,1.85,6.56,6.56,0,0,1-6.59-1c-8.32-5.83-17.41-7.38-27.22-4.14s-16.75,9.86-21.69,18.5a20.37,20.37,0,0,1-8.32,8.34c4.95.13,9.63-.68,13.44-4.14l-1,.07c4.61-13.6,26.33-25.94,41.24-14-3.83,4.21-8.18,8-11.36,12.74a2,2,0,0,1-1.12.83,287,287,0,0,1,31.46,6.12,9.06,9.06,0,0,1-.54-1.08c-2.12-4.85-4.08-9.79-6.51-14.48-1.47-2.84-.15-3.3,2.09-3.8,13.59-3,27.14,4.26,33.21,18,2.46,5.55,3,14,2.54,20.5,0,.33,1.63,2,1.91,2.28.55.64,1.59,2.13,2.46,1.25a7.22,7.22,0,0,0,.9-2.56,23.14,23.14,0,0,0,.66-2.88C404.91,63.24,403.71,57.13,401.82,51.58Zm-41.81-7a10.36,10.36,0,0,1,1.82,5.68l-18.66-3.78c.42-.86.66-1.31.87-1.78,1.89-4.12,5.32-7.67,9.33-7.82C356.57,36.76,358.24,41.56,360,44.59Z"/><path class="cls-7" d="M158.62,397.57c.09,5.54-.9,6.4-4.78,4.85-3.39-1.36-8.19-2.38-8.76-6s4.31-4.75,6.85-6.93,4-1.75,4.88,1.55C157.49,393.6,158.65,396,158.62,397.57Z"/><path class="cls-8" d="M77.87,307.07a11.71,11.71,0,0,1,1.19.06c3.19.45,7.26,1.11,8.32,3.74.94,2.35-3.08,4-5.13,5.66-6.13,5-7.36,4.44-9.21-3.38C72.1,309.16,73.75,307.08,77.87,307.07Z"/><path class="cls-9" d="M403.14,390.47c1.92.13,4.83-.55,5.87,1.68.95,2.05-.73,4.31-2.18,6.06-5.42,6.55-5.42,7.73-10-.73C393.63,391.58,394.55,390.6,403.14,390.47Z"/><path class="cls-7" d="M204,257.44c2,.39,4.15,1,4.85,2.91.82,2.21-.73,4.33-1.7,6.32-.73,1.5-1.48.45-2-.25a20.16,20.16,0,0,1-3.34-6.7C201.12,257.74,201.91,256.93,204,257.44Z"/><path class="cls-10" d="M239.82,209c-2.28,3.23-5.15,2-7.31.41-5.11-3.78-3.11-8.86-1.57-14a18.54,18.54,0,0,0-2.65,1.47c-.91.73-1.94,2.31-2.91,1.44-1.26-1.12.08-2.76.73-3.88,1.92-3.25,7.15-4.26,12.35-2.65,4.3,1.34,7.15,4.73,7,8.53,0,1,0,2.45-1.17,2.63s-2-1.06-2.58-2.15c-.72-1.46-.44-3.66-2.63-4-3.08-.54-4.64,1.38-5.68,3.91s-.79,4.66,1.9,6C236.82,207.44,238.79,207.26,239.82,209Z"/><path class="cls-11" d="M388.05,191.9c-1-.37-2.84.86-3.12-1.26-.24-1.81,1.09-2.41,2.59-3a26,26,0,0,1,8.15-1.44c3.84-.13,7.67-.47,11.5-.74,1-.07,2.1.14,2.39,1s-.78,1.54-1.53,2a5,5,0,0,1-1.83.76C400.18,190.2,394.16,191,388.05,191.9Z"/><path class="cls-6" d="M500.68,437.4c9.59,0,19.17-1.34,28.58.58,8.34,1.71,11.86,12.6,7.09,20.93a13.51,13.51,0,0,1-13.67,7.1c-5.36-.45-9.27.88-13.12,5s-9,7.66-15.62,5.35c-1-.35-2.36-.53-2.37-1.72s1.34-1.57,2.37-1.68c7.69-.86,13.09-5.49,17.95-10.93,1.36-1.52,2.9-1,4.43-.87,3.88.34,7.65.07,11.16-1.81a8.84,8.84,0,0,0,5.06-9.17c-.32-3.9-2.82-5.71-6.25-6.84-5.51-1.81-11.32-1.29-16.94-2.28C506.18,440.54,503.19,439.81,500.68,437.4Z"/><path class="cls-10" d="M354.11,326.64c-4-.05-6.77-4.7-4-9.06a19.91,19.91,0,0,1,13.26-8.69c1.77-.37,3.94-.08,4.29,1.85.27,1.52-1.78,2-3.16,2.41a32.73,32.73,0,0,0-3.33,1.29c-1.34.61-1.91,1.49-.5,2.63,2,1.6,2.91,3.66,1.71,5.95C361,325.72,358.32,326.63,354.11,326.64Z"/></svg>